<svg width="41" height="40" viewBox="0 0 41 40" fill="none" xmlns="http://www.w3.org/2000/svg">
<path d="M15.585 29L29.585 20L15.585 11V29ZM20.585 40C17.8183 40 15.2183 39.4747 12.785 38.424C10.3516 37.3733 8.23496 35.9487 6.43496 34.15C4.63496 32.35 3.21029 30.2333 2.16096 27.8C1.11163 25.3667 0.586294 22.7667 0.584961 20C0.584961 17.2333 1.11029 14.6333 2.16096 12.2C3.21163 9.76667 4.63629 7.65 6.43496 5.85C8.23496 4.05 10.3516 2.62533 12.785 1.576C15.2183 0.526667 17.8183 0.00133333 20.585 0C23.3516 0 25.9516 0.525333 28.385 1.576C30.8183 2.62667 32.935 4.05133 34.735 5.85C36.535 7.65 37.9603 9.76667 39.011 12.2C40.0616 14.6333 40.5863 17.2333 40.585 20C40.585 22.7667 40.0596 25.3667 39.009 27.8C37.9583 30.2333 36.5336 32.35 34.735 34.15C32.935 35.95 30.8183 37.3753 28.385 38.426C25.9516 39.4767 23.3516 40.0013 20.585 40ZM20.585 36C25.0516 36 28.835 34.45 31.935 31.35C35.035 28.25 36.585 24.4667 36.585 20C36.585 15.5333 35.035 11.75 31.935 8.65C28.835 5.55 25.0516 4 20.585 4C16.1183 4 12.335 5.55 9.23496 8.65C6.13496 11.75 4.58496 15.5333 4.58496 20C4.58496 24.4667 6.13496 28.25 9.23496 31.35C12.335 34.45 16.1183 36 20.585 36Z" fill="#FEFEFE"/>
</svg>
